HIERARCHY
ROOT pelvis
{
  OFFSET 0 100 0
  CHANNELS 6 Xposition Yposition Zposition Zrotation Xrotation Yrotation
  JOINT pelvis_right_femur
  {
    OFFSET -10.78128 -3.44521 -0.5502486
    CHANNELS 3 Zrotation Xrotation Yrotation
    JOINT right_femur_tibia
    {
      OFFSET -0.8047443 -44.0398 -0.1307829
      CHANNELS 3 Zrotation Xrotation Yrotation
      JOINT right_tibia_foot
      {
        OFFSET 3.006224 -47.83518 -5
        CHANNELS 3 Zrotation Xrotation Yrotation
        End Site
        {
          OFFSET 0 -5 15
        }
      }
    }
  }
  JOINT pelvis_left_femur
  {
    OFFSET 10.78128 -3.44521 -0.5502486
    CHANNELS 3 Zrotation Xrotation Yrotation
    JOINT left_femur_tibia
    {
      OFFSET 0.8047443 -44.0398 -0.1307829
      CHANNELS 3 Zrotation Xrotation Yrotation
      JOINT left_tibia_foot
      {
        OFFSET -4.370144 -48.10324 -4.275266
        CHANNELS 3 Zrotation Xrotation Yrotation
        End Site
        {
          OFFSET 0 -5 15
        }
      }
    }
  }
  JOINT pelvis_spine1
  {
    OFFSET 0 6.468898 -3.129235
    CHANNELS 3 Zrotation Xrotation Yrotation
    JOINT spine1
    {
      OFFSET 0 23.15396 4.99043
      CHANNELS 3 Zrotation Xrotation Yrotation
      JOINT spine2
      {
        OFFSET 0 20.79997 -5.064912
        CHANNELS 3 Zrotation Xrotation Yrotation
        JOINT neck
        {
          OFFSET 0 14.38658 9.616178
          CHANNELS 3 Zrotation Xrotation Yrotation
          End Site
          {
            OFFSET 0 20 0
          }
        }
      }
      JOINT right_manubrium
      {
        OFFSET -5.722621 16.35077 3.967754
        CHANNELS 3 Zrotation Xrotation Yrotation
        JOINT right_clavicle
        {
          OFFSET -13.16364 1.694482 -4.693211
          CHANNELS 3 Zrotation Xrotation Yrotation
          JOINT right_humerus
          {
            OFFSET -28.5034 -0.3100689 -2.792744
            CHANNELS 3 Zrotation Xrotation Yrotation
            JOINT right_radius
            {
              OFFSET -25.15693 0.02248979 -1.271978
              CHANNELS 3 Zrotation Xrotation Yrotation
              End Site
              {
                OFFSET -15 0 0
              }
            }
          }
        }
      }
      JOINT left_manubrium
      {
        OFFSET 5.722621 16.35077 3.967754
        CHANNELS 3 Zrotation Xrotation Yrotation
        JOINT left_clavicle
        {
          OFFSET 13.16364 1.694482 -4.693211
          CHANNELS 3 Zrotation Xrotation Yrotation
          JOINT left_humerus
          {
            OFFSET 29.39168 -1.063119 -2.237045
            CHANNELS 3 Zrotation Xrotation Yrotation
            JOINT left_radius
            {
              OFFSET 24.59957 -0.9528479 0.9047498
              CHANNELS 3 Zrotation Xrotation Yrotation
              End Site
              {
                OFFSET 15 -0 -0
              }
            }
          }
        }
      }
    }
  }
}
MOTION
Frames: 17
Frame Time: 0.0416666666667
376.3343 100.7199 3022.709 -1.102108 -1.947211 6.598033 7.273216 -18.46322 3.606001 -0 11.9412 -0 -4.406641 0.8661584 -3.958046 -3.303583 10.15559 -7.213473 -0 48.87299 -0 -6.549049 -8.492131 11.32713 0.804322 -0.8829705 3.712974 -0.6025557 10.06294 -6.260837 2.961277 22.78718 3.488629 -0.7794167 -19.83186 8.562725 -5.947469 -18.60909 7.86698 99.17891 20.52474 -22.28157 -0 0 7.297549 -17.38048 7.754377 7.991745 4.132404 -26.11041 -5.611887 -80.72273 19.38373 10.14802 0 0 -33.92438 7.887869 11.91496 9.448623
376.8331 102.1984 3029.26 -0.8999343 -2.727632 5.962467 7.084655 -12.65512 3.820738 -0 13.0077 -0 -5.697692 -1.904197 -3.379844 -2.912262 3.896981 -7.242566 -0 56.65973 -0 -6.731196 -5.96597 11.72954 0.823675 -1.045028 4.115441 -0.52338 10.86253 -6.197132 2.865769 22.67979 3.246491 -0.7658865 -19.79457 8.131019 -5.77627 -19.71867 8.282137 98.53215 19.7166 -21.26818 -0 0 8.778914 -17.81939 8.454963 8.579707 3.726889 -25.63496 -6.017383 -82.35268 19.43126 12.90493 0 0 -31.57261 6.970515 12.01017 10.22108
377.3358 103.6665 3035.284 -0.2605793 -3.440217 5.268324 6.223606 -6.782796 3.396382 -0 11.99164 -0 -6.933213 -4.577991 -2.400207 -2.652132 -3.468312 -7.132731 -0 60.82392 -0 -6.075263 -4.673028 12.33237 0.9138263 -1.163945 4.630883 -0.5294546 11.65654 -6.071501 2.784924 22.42624 2.87681 -0.8745727 -19.70769 7.673566 -5.66768 -21.11797 8.645217 97.74934 19.10576 -19.86175 -0 0 10.99909 -18.26649 9.310946 9.336364 3.237091 -24.94643 -6.327916 -84.0958 19.23712 16.27922 0 0 -28.9427 5.98972 11.99873 11.11728
377.8282 104.768 3040.818 0.4748444 -4.016311 4.656166 5.303788 -1.373729 2.781492 -0 9.75126 -0 -7.83482 -6.898772 -1.317194 -2.086299 -10.8553 -6.617135 -0 59.93472 -0 -4.773765 -4.354894 13.20674 1.061999 -1.253282 5.227719 -0.60501 12.38252 -5.892627 2.705539 22.03053 2.426356 -1.083674 -19.58134 7.214793 -5.602493 -22.72869 8.938604 96.82449 18.69155 -18.12552 -0 0 13.84094 -18.6933 10.3023 10.22971 2.71892 -24.08672 -6.516392 -85.86372 18.80697 20.06058 0 0 -26.22225 4.996926 11.87041 12.07827
378.3197 105.2628 3046 0.9080277 -4.428527 4.166994 4.855416 3.240824 2.272408 -0 7.590664 -0 -8.353984 -8.971028 -0.4549503 -0.828121 -17.22434 -5.467424 -0 53.71681 -0 -3.175465 -4.471957 14.30915 1.253084 -1.31521 5.872206 -0.7347359 12.98744 -5.662775 2.617338 21.51502 1.940492 -1.369521 -19.42941 6.780145 -5.558526 -24.46361 9.148445 95.74985 18.45216 -16.12007 -0 0 17.1701 -19.07106 11.39642 11.21314 2.221592 -23.08178 -6.569876 -87.59155 18.18849 24.04894 0 0 -23.54292 4.031515 11.62523 13.04939
378.8614 105.0835 3051.016 0.847697 -4.629378 3.767628 5.003601 6.948567 1.941158 -0 6.462882 -0 -8.563198 -11.02486 0.01989437 1.06131 -21.82148 -3.767761 -0 43.43139 -0 -1.632067 -4.521769 15.3528 1.469136 -1.347456 6.526878 -0.9022771 13.42704 -5.383209 2.516153 20.92103 1.464206 -1.705608 -19.27425 6.398362 -5.521596 -26.22194 9.264913 94.53825 18.34261 -13.92797 -0 0 20.80761 -19.3765 12.53342 12.22405 1.788988 -21.95902 -6.488642 -89.23119 17.46531 28.03695 0 0 -21.00378 3.127214 11.27526 13.97953
379.5279 104.3384 3056.066 0.3873106 -4.58318 3.406739 5.452123 9.852343 1.746018 -0 6.661345 -0 -8.521558 -13.13612 0.1692529 2.998621 -24.38307 -2.052215 -0 31.58005 -0 -0.4478027 -4.242621 16.02529 1.688612 -1.348995 7.14856 -1.088412 13.67111 -5.062586 2.406926 20.30873 1.040884 -2.060864 -19.14382 6.099476 -5.491121 -27.88222 9.284384 93.24821 18.29997 -11.68472 -0 0 24.49754 -19.59353 13.61822 13.18062 1.457371 -20.76986 -6.288814 -90.73609 16.74881 31.78483 0 0 -18.70153 2.315728 10.8469 14.82462
380.3811 103.2455 3061.326 -0.2124698 -4.346524 3.040133 5.735828 12.22253 1.585405 -0 7.94262 -0 -8.310402 -15.13464 0.2188098 4.260188 -25.22448 -1.043315 -0 20.8872 -0 0.1545172 -3.677762 16.31078 1.887536 -1.320671 7.692569 -1.272605 13.71473 -4.72133 2.304153 19.75004 0.7039826 -2.402065 -19.06033 5.906196 -5.477919 -29.31287 9.212438 91.98791 18.26093 -9.577624 -0 0 27.92298 -19.71286 14.53366 13.9898 1.247168 -19.59527 -6.003645 -92.05678 16.16114 35.03703 0 0 -16.72944 1.620374 10.37781 15.55976
381.4396 102.0357 3066.914 -0.6890315 -4.086617 2.626329 5.50969 14.39318 1.323472 -0 9.87272 -0 -8.100995 -16.65088 0.4051406 4.452067 -25.02013 -1.209856 -0 13.21841 -0 0.0904739 -3.101521 16.53402 2.044323 -1.262874 8.122732 -1.437952 13.58462 -4.388292 2.226829 19.31088 0.4676335 -2.700472 -19.0288 5.824473 -5.494881 -30.40303 9.065149 90.88567 18.18603 -7.799366 -0 0 30.7825 -19.73219 15.17654 14.57047 1.156243 -18.52792 -5.677613 -93.14734 15.80346 37.58146 0 0 -15.1546 1.049807 9.908337 16.18405
382.671 100.8926 3072.892 -0.8685942 -4.004558 2.13532 4.673367 16.61418 0.8879801 -0 12.19915 -0 -8.084379 -17.16029 0.8387557 3.609433 -24.38559 -2.573211 -0 9.162933 -0 -0.5398665 -2.852496 17.08123 2.146464 -1.174148 8.41951 -1.575636 13.33234 -4.09268 2.190224 19.03181 0.3248579 -2.938249 -19.03438 5.841452 -5.54602 -31.09198 8.866914 90.04535 18.07579 -6.488584 -0 0 32.87439 -19.65599 15.49641 14.87742 1.161645 -17.6459 -5.355642 -93.96926 15.7239 39.30221 0 0 -14.00735 0.6027747 9.474689 16.70718
384.0085 99.95467 3079.268 -0.6748485 -4.233435 1.584074 3.327948 18.90341 0.3648489 -0 15.06387 -0 -8.337856 -16.03833 1.469859 1.999109 -23.57922 -4.792465 -0 8.323042 -0 -1.454901 -3.172115 18.08886 2.194658 -1.051384 8.580234 -1.685878 13.01738 -3.857177 2.20075 18.91999 0.2542257 -3.111084 -19.0494 5.932702 -5.622096 -31.3749 8.644447 89.51971 17.96947 -5.701643 -0 0 34.12856 -19.49235 15.50947 14.90748 1.228681 -16.99724 -5.074102 -94.487 15.90793 40.18463 0 0 -13.29559 0.2803272 9.107326 17.12961
385.3785 99.34524 3086.002 -0.1169631 -4.7867 1.066573 1.68993 20.95388 -0.03494621 -0 18.96487 -0 -8.788198 -12.746 2.142542 -0.04505369 -22.46855 -7.320162 -0 9.808118 -0 -2.277204 -4.11736 19.35859 2.201993 -0.8899123 8.61297 -1.776216 12.69016 -3.695186 2.25696 18.95547 0.2291049 -3.226926 -19.04404 6.073424 -5.705895 -31.28525 8.418774 89.31484 17.93161 -5.426513 -0 0 34.57976 -19.2465 15.2809 14.68539 1.321288 -16.60058 -4.856637 -94.66063 16.29467 40.27833 0 0 -13.02921 0.09520641 8.831498 17.43309
386.7221 99.18624 3092.992 0.7015677 -5.57079 0.7407175 0.05242964 22.1501 -0.135364 -0 24.46851 -0 -9.292462 -7.189335 2.669476 -2.162432 -20.70073 -9.560299 -0 12.55221 -0 -2.691573 -5.557526 20.50919 2.189633 -0.6831232 8.529584 -1.859358 12.38124 -3.611104 2.353965 19.10366 0.2248261 -3.302507 -18.99502 6.247359 -5.782273 -30.87102 8.19894 89.41175 18.03743 -5.614836 -0 0 34.3194 -18.91645 14.89211 14.24471 1.409496 -16.45399 -4.713178 -94.442 16.80153 39.65218 0 0 -13.23611 0.07442944 8.666502 17.58329
388.0015 99.56895 3100.06 1.569635 -6.43842 0.7608301 -1.231406 21.7327 0.04354382 -0 31.72507 -0 -9.733769 -0.08717484 2.894641 -3.989584 -17.95804 -11.05872 -0 15.46453 -0 -2.585816 -7.231812 21.21346 2.181361 -0.4230029 8.341676 -1.951434 12.09729 -3.601106 2.487074 19.32537 0.2234344 -3.358821 -18.89138 6.450901 -5.846745 -30.1795 7.980018 89.78499 18.36203 -6.205085 -0 0 33.46007 -18.49581 14.41222 13.6189 1.473768 -16.5428 -4.639118 -93.77868 17.34038 38.36798 0 0 -13.96096 0.2571427 8.623315 17.53618
389.1987 100.4898 3106.968 2.207666 -7.254802 1.187545 -1.849026 19.10178 0.290038 -0 39.96804 -0 -10.04735 7.009897 2.736779 -5.237926 -14.1799 -11.67694 -0 17.5864 -0 -2.07017 -8.841969 21.35546 2.197691 -0.1026226 8.059494 -2.069722 11.82108 -3.653326 2.652828 19.58303 0.2175473 -3.415802 -18.73881 6.69298 -5.909724 -29.25331 7.745668 90.40981 18.97105 -7.128539 -0 0 32.1197 -17.98424 13.88083 12.84549 1.507964 -16.84247 -4.613558 -92.62799 17.82377 36.47766 0 0 -15.2456 0.6892383 8.701671 17.24373
390.3143 101.7961 3113.495 2.394866 -7.935572 1.941122 -1.720199 14.1453 0.3955233 -0 47.3917 -0 -10.18463 12.30538 2.195856 -5.781581 -9.641757 -11.60741 -0 18.31445 -0 -1.372314 -10.18181 21.01623 2.249486 0.2792761 7.692126 -2.228201 11.51584 -3.748786 2.847836 19.84591 0.2133528 -3.486369 -18.56203 6.991161 -5.995121 -28.13229 7.474942 91.26071 19.90711 -8.307472 -0 0 30.41323 -17.40023 13.30195 11.97539 1.521569 -17.31896 -4.599314 -90.98074 18.17008 34.03503 0 0 -17.09744 1.41269 8.887892 16.66142
391.3628 103.1976 3119.529 2.115591 -8.417105 2.842424 -1.070711 7.387567 0.3039272 -0 51.76059 -0 -10.08123 14.67285 1.330375 -5.699136 -4.840056 -11.18967 -0 17.5686 -0 -0.7247652 -11.2831 20.33372 2.332193 0.7112213 7.248147 -2.429795 11.13698 -3.866259 3.066279 20.09597 0.2305573 -3.570776 -18.40169 7.3628 -6.131727 -26.85605 7.153113 92.30732 21.16654 -9.660674 -0 0 28.43978 -16.78845 12.65082 11.07558 1.53983 -17.93224 -4.550166 -88.88891 18.31711 31.1104 0 0 -19.45951 2.446193 9.154655 15.76398
